<svg id="Capa_1" enable-background="new 0 0 512 512" height="512" viewBox="0 0 512 512" width="512" xmlns="http://www.w3.org/2000/svg"><g><g><path clip-rule="evenodd" d="m95.324 432.898 11.026-72.538-11.026-74.38c-26.985 11.31-48.187 29.338-48.782 65.848v36.822 35.348c0 4.904 3.997 8.901 8.9 8.901h39.882z" fill="#eb5468" fill-rule="evenodd"/></g><g><path clip-rule="evenodd" d="m136.907 348.029h67.207 67.179c10.318 0 20.579-8.589 18.736-18.737l-9.722-53.971c-14.371-3.855-28.771-7.2-41.413-11.367h-69.588c-12.642 4.167-27.041 7.512-41.413 11.367l-9.722 53.971c-1.843 10.12 8.418 18.737 18.736 18.737z" fill="#eb5468" fill-rule="evenodd"/></g><g><path clip-rule="evenodd" d="m312.875 432.898h39.91c4.875 0 8.9-3.997 8.9-8.901v-35.348-36.822c-.624-36.51-21.826-54.538-48.811-65.848v146.919z" fill="#eb5468" fill-rule="evenodd"/></g><g><path clip-rule="evenodd" d="m204.114 299.727c19.133 0 34.78-16.101 34.78-35.773v-31.804c-4.252 2.438-8.674 4.535-13.209 6.208-7.795 2.891-14.683 4.337-21.571 4.337-6.916 0-13.804-1.446-21.599-4.337-4.535-1.672-8.929-3.77-13.209-6.208v31.804c0 19.673 15.675 35.773 34.808 35.773z" fill="#f5a96c" fill-rule="evenodd"/></g><g><path clip-rule="evenodd" d="m286.259 186.57c16.639-.907 36.764-10.063 36.736-26.419v-5.471c-.028-8.787-7.2-16.186-15.987-16.186h-3.515c-37.813.171-31.946 32.117-17.234 48.076z" fill="#ea9a58" fill-rule="evenodd"/></g><g><path clip-rule="evenodd" d="m110.574 121.629c58.306-39.6 128.745-39.6 187.051 0v-49.436c0-86.201-187.051-86.314-187.051 0z" fill="#eb5468" fill-rule="evenodd"/></g><g><path clip-rule="evenodd" d="m85.205 160.151c-.028 16.356 20.069 25.426 36.707 26.334 27.212-4.904 25.738-55.388-17.206-47.99h-3.515c-8.787 0-15.958 7.398-15.987 16.186v5.47z" fill="#ea9a58" fill-rule="evenodd"/></g><g><path clip-rule="evenodd" d="m361.686 423.997v-35.348-36.822c-.624-36.51-21.826-54.538-48.811-65.848l-5.754 14.485 5.754 16.639c13.322 11.31 22.109 27.071 22.478 50.371v36.822 28.601h17.432c4.876.001 8.901-3.996 8.901-8.9z" fill="#e5384f" fill-rule="evenodd"/></g><g><path clip-rule="evenodd" d="m233.451 283.117c13.181 4.309 33.844 10.8 46.855 14.315l10.913-6.406-10.913-15.704c-14.371-3.855-28.771-7.2-41.413-11.367-8.786 3.373-11.904 9.467-5.442 19.162z" fill="#e5384f" fill-rule="evenodd"/></g><g><path clip-rule="evenodd" d="m238.894 263.955v-31.805c-4.252 2.438-8.674 4.535-13.209 6.208-7.795 2.891-14.683 4.337-21.571 4.337-6.916 0-13.804-1.446-21.599-4.337-4.535-1.672-8.929-3.77-13.209-6.208v31.804c16.894 9.666 32.087 12.614 47.932 8.901 4.45-1.049 5.017 1.644 5.017 1.644 0 9.184-3.43 17.603-9.014 23.952 8.419-2.353 15.59-7.937 20.21-15.335 3.43-5.555 5.443-12.132 5.443-19.161z" fill="#ea9a58" fill-rule="evenodd"/></g><g><path clip-rule="evenodd" d="m267.721 95.465c10.233 4.394 20.239 9.864 29.904 16.441v-39.713c0-29.14-21.372-48.444-49.689-57.911 12.16 10.403 19.785 24.293 19.785 41.697z" fill="#e5384f" fill-rule="evenodd"/></g><g><path clip-rule="evenodd" d="m182.515 248.109c7.795 2.891 14.683 4.337 21.599 4.337 6.888 0 13.776-1.446 21.571-4.337 4.535-1.701 8.957-3.77 13.209-6.208 21.826-12.472 39.684-33.987 47.365-55.332 2.608-7.285 4.053-14.542 4.053-21.401v-29.537c-3.77.198-7.653-.822-10.97-3.146-47.167-32.882-103.319-32.882-150.486 0-3.316 2.324-7.171 3.345-10.97 3.146v29.537c0 6.86 1.446 14.088 4.025 21.316 7.682 21.373 25.539 42.916 47.393 55.417 4.282 2.438 8.675 4.507 13.211 6.208z" fill="#ffbc85" fill-rule="evenodd"/></g><g><path clip-rule="evenodd" d="m238.894 241.901c21.826-12.472 39.684-33.987 47.365-55.332 2.608-7.285 4.053-14.542 4.053-21.401v-29.537c-3.77.198-7.653-.822-10.97-3.146-3.827-2.665-7.682-5.102-11.622-7.342v26.334c0 6.888-1.417 14.145-4.053 21.401-7.682 21.345-25.539 42.859-47.365 55.332-4.252 2.438-8.674 4.535-13.181 6.208-7.823 2.891-14.711 4.337-21.599 4.337s-13.776-1.446-21.599-4.337c-1.276-.482-2.579-.992-3.855-1.559 4.195 3.373 8.645 6.406 13.237 9.042 4.28 2.438 8.674 4.507 13.209 6.208 7.795 2.891 14.683 4.337 21.599 4.337 6.888 0 13.776-1.446 21.571-4.337 4.536-1.701 8.958-3.77 13.21-6.208z" fill="#f5a96c" fill-rule="evenodd"/></g><g><path clip-rule="evenodd" d="m128.857 142.236c47.167-32.91 103.319-32.91 150.486 0 3.316 2.324 7.2 3.345 10.97 3.146 5.046-.255 9.921-2.636 13.181-6.888.17-.227.312-.425.482-.652 5.556-7.994 3.6-19.049-4.394-24.604-.652-.454-1.304-.907-1.956-1.332-58.306-39.6-128.745-39.6-187.051 0-.652.425-1.304.879-1.956 1.332-7.965 5.556-9.949 16.611-4.365 24.604.142.227.283.425.454.652 5.696 7.456 16.382 9.156 24.149 3.742z" fill="#375e7d" fill-rule="evenodd"/></g><g><path clip-rule="evenodd" d="m263.923 132.797c5.216 2.778 10.374 5.924 15.42 9.439 3.316 2.324 7.2 3.345 10.97 3.146 5.046-.255 9.921-2.636 13.181-6.888.17-.227.312-.425.482-.652 5.556-7.994 3.6-19.049-4.394-24.604-.652-.454-1.304-.907-1.956-1.332-11.792-8.022-24.122-14.428-36.736-19.19 3.316 7.087 5.187 15.335 5.187 24.123 0 5.612-.766 10.969-2.154 15.958z" fill="#2b4d66" fill-rule="evenodd"/></g><g><path clip-rule="evenodd" d="m95.324 432.898h217.551v-146.918c-10.289-4.309-21.429-7.653-32.569-10.658v44.22c0 10.318-8.447 18.737-18.765 18.737h-57.428-57.456c-10.318 0-18.765-8.419-18.765-18.737v-44.22c-11.14 3.005-22.279 6.35-32.569 10.658v146.918z" fill="#fec165" fill-rule="evenodd"/></g><g><path clip-rule="evenodd" d="m286.57 301.627c9.751 4.11 18.765 9.071 26.305 15.477v-31.124c-10.289-4.309-21.429-7.653-32.569-10.658v23.839c1.559.567 3.09 1.191 4.62 1.786.539.226 1.106.453 1.644.68z" fill="#fdb441" fill-rule="evenodd"/></g><g><path clip-rule="evenodd" d="m378.069 504.5c48.13 0 87.389-39.259 87.389-87.419 0-48.132-39.258-87.391-87.389-87.391-48.159 0-87.417 39.259-87.417 87.391 0 48.16 39.259 87.419 87.417 87.419z" fill="#3bc3a4" fill-rule="evenodd"/></g><g><path clip-rule="evenodd" d="m367.978 330.256c39.627 8.305 69.389 43.455 69.389 85.549 0 44.872-33.816 81.835-77.326 86.824 5.811 1.219 11.848 1.871 18.028 1.871 48.187 0 87.275-39.033 87.389-87.193v-.227-.227c-.113-48.16-39.202-87.164-87.389-87.164-3.429 0-6.774.199-10.091.567z" fill="#00a887" fill-rule="evenodd"/></g><g><path d="m179.935 56.449h53.658c4.142 0 7.5-3.357 7.5-7.5s-3.358-7.5-7.5-7.5h-53.658c-4.142 0-7.5 3.357-7.5 7.5s3.358 7.5 7.5 7.5z"/><path d="m161.511 364.453h-19.133c-4.142 0-7.5 3.357-7.5 7.5s3.358 7.5 7.5 7.5h19.133c4.142 0 7.5-3.357 7.5-7.5s-3.358-7.5-7.5-7.5z"/><path d="m265.85 364.453h-19.162c-4.142 0-7.5 3.357-7.5 7.5s3.358 7.5 7.5 7.5h19.162c4.142 0 7.5-3.357 7.5-7.5s-3.358-7.5-7.5-7.5z"/><path d="m378.069 322.189c-4.816 0-9.548.363-14.173 1.058-14.732-37.896-56.985-48.833-94.513-58.525-8.069-2.083-15.778-4.074-22.99-6.262v-12.353c19.942-12.559 36.585-32.124 45.161-52.516 19.705-2.625 38.973-14.538 38.94-33.44v-5.495c-.034-10.495-6.86-19.412-16.248-22.5 1.574-8.889-1.705-18.267-9.121-24.133v-35.83c0-22.724-11.348-41.709-32.817-54.904-18.139-11.149-42.379-17.289-68.254-17.289-25.863 0-50.083 6.137-68.2 17.28-21.445 13.19-32.78 32.179-32.78 54.913v35.833c-4.802 3.807-8.016 9.177-9.104 15.285-.53 2.975-.522 5.959-.012 8.843-9.391 3.087-16.22 12.009-16.254 22.526v5.458c-.032 18.859 19.216 30.744 38.904 33.367 8.565 20.423 25.226 40.026 45.197 52.602v12.353c-7.212 2.188-14.921 4.181-22.989 6.265-44.009 11.37-98.779 25.521-99.773 86.981 0 .04-.001.081-.001.121v72.169c0 9.043 7.357 16.4 16.4 16.4h230.611c10.42 41.103 47.722 71.604 92.016 71.604 52.322 0 94.889-42.581 94.889-94.92 0-52.323-42.567-94.891-94.889-94.891zm-28.979 4.529c-10.479 3.367-20.169 8.507-28.715 15.068v-43.965c12.711 6.833 22.987 15.889 28.715 28.897zm-33.596-166.554c.014 7.992-8.594 14.175-18.905 17.11.789-4.085 1.223-8.138 1.223-12.106v-13.698c3.292-1.154 6.37-2.99 8.991-5.476h.204c4.585 0 8.472 3.989 8.487 8.687zm-111.44-145.164c22.805 0 44.82 5.492 60.4 15.068 11.711 7.198 25.671 20.349 25.671 42.125v26.152c-26.849-15.511-56.288-23.646-86.015-23.646-29.729 0-59.175 8.137-86.036 23.65v-26.156c0-39.296 44.57-57.193 85.98-57.193zm-111.349 145.151v-5.446c.015-4.722 3.902-8.711 8.487-8.711h.218c2.565 2.447 5.614 4.308 8.977 5.483v13.69c0 3.943.429 7.97 1.208 12.028-10.302-2.922-18.904-9.08-18.89-17.044zm32.682 5.017v-13.152c2.741-.75 5.364-1.955 7.759-3.628 17.747-12.372 36.752-19.911 56.489-22.409 4.109-.52 7.019-4.272 6.499-8.382s-4.271-7.028-8.382-6.499c-22.169 2.805-43.427 11.211-63.19 24.989-2.219 1.55-4.917 2.143-7.599 1.66-2.682-.479-5.008-1.966-6.562-4.2-1.55-2.22-2.141-4.921-1.663-7.607.478-2.682 1.958-5.008 4.169-6.55 57.115-39.824 125.295-39.824 182.393.006 4.595 3.194 5.724 9.549 2.525 14.151-3.225 4.614-9.59 5.753-14.19 2.539-18.416-12.858-38.248-21.063-58.945-24.387-4.095-.654-7.938 2.127-8.594 6.217s2.126 7.938 6.216 8.594c18.447 2.961 36.189 10.321 52.734 21.874 2.429 1.697 5.057 2.899 7.765 3.637v13.146c0 28.637-27.914 64.108-59.735 75.909-7.118 2.64-13.144 3.869-18.963 3.869-5.839 0-11.874-1.229-18.991-3.869-31.821-11.8-59.735-47.271-59.735-75.908zm54.52 89.974c8.84 3.278 16.532 4.805 24.207 4.805 7.656 0 15.339-1.526 24.179-4.805 1.039-.385 2.072-.799 3.101-1.225v10.039c0 15.59-12.238 28.272-27.28 28.272-15.058 0-27.308-12.683-27.308-28.272v-10.039c1.029.425 2.062.839 3.101 1.225zm-125.865 168.855v-72.108c.467-27.594 14.265-43.463 33.782-54.019v127.527h-32.382c-.759 0-1.4-.641-1.4-1.4zm48.782 1.4v-134.324c5.641-2.161 11.54-4.072 17.569-5.84v34.308c0 14.468 11.782 26.237 26.265 26.237h39.91c4.142 0 7.5-3.357 7.5-7.5s-3.358-7.5-7.5-7.5h-39.91c-6.211 0-11.265-5.041-11.265-11.237v-38.429c2.391-.626 4.785-1.245 7.175-1.863 7.059-1.824 13.829-3.588 20.347-5.485 4.358 19.149 21.169 33.464 41.198 33.464 20.016 0 36.816-14.315 41.171-33.464 6.518 1.897 13.289 3.66 20.348 5.483 2.389.617 4.782 1.235 7.173 1.861v38.434c0 6.196-5.053 11.237-11.265 11.237h-40.335c-4.142 0-7.5 3.357-7.5 7.5s3.358 7.5 7.5 7.5h40.335c14.482 0 26.265-11.77 26.265-26.237v-34.312c6.028 1.765 11.926 3.674 17.569 5.828v65.083c-13.861 16.498-22.223 37.76-22.223 60.941 0 2.803.129 5.576.369 8.317h-180.696zm275.245 71.603c-44.066 0-79.917-35.852-79.917-79.92 0-44.052 35.851-79.891 79.917-79.891 44.051 0 79.889 35.839 79.889 79.891 0 44.068-35.838 79.92-79.889 79.92z"/><path d="m420.109 373.369c-2.212-2.212-5.158-3.431-8.295-3.431s-6.083 1.219-8.293 3.43l-35.399 35.399c-11.404-6.689-26.342-5.148-36.117 4.625-5.632 5.632-8.73 13.12-8.723 21.085.006 7.946 3.104 15.409 8.723 21.015 5.805 5.805 13.429 8.706 21.052 8.706 7.62-.001 15.24-2.9 21.037-8.698 5.625-5.605 8.726-13.072 8.732-21.022.005-5.399-1.422-10.577-4.092-15.108l12.884-12.885 8.246 8.246c1.464 1.464 3.384 2.196 5.303 2.196s3.839-.732 5.303-2.196c2.929-2.93 2.929-7.678 0-10.607l-8.245-8.245 9.586-9.587 8.228 8.249c2.924 2.935 7.673 2.939 10.606.015 2.933-2.926 2.939-7.674.014-10.606zm-56.612 71.516c-5.758 5.761-15.127 5.761-20.885 0-.003-.003-.006-.005-.009-.008-2.783-2.774-4.318-6.473-4.321-10.412-.003-3.953 1.534-7.67 4.33-10.465 2.879-2.88 6.661-4.319 10.443-4.319s7.563 1.439 10.442 4.319c2.795 2.795 4.333 6.512 4.33 10.465-.003 3.939-1.538 7.638-4.33 10.42z"/></g></g></svg>